<svg width="64" height="64" viewBox="0 0 64 64" fill="none" xmlns="http://www.w3.org/2000/svg">
<rect x="0.5" y="0.5" width="63" height="63" rx="3.5" fill="#07B6E1" fill-opacity="0.13" stroke="#07B6E1"/>
<path d="M18.6667 49.1429H14.8572V47.2381C14.8656 39.8778 20.8302 33.9132 28.1905 33.9048H35.8096C43.1699 33.9132 49.1345 39.8778 49.1429 47.2381V49.1429H45.3334V47.2381C45.3271 41.9809 41.0668 37.7206 35.8096 37.7143H28.1905C22.9333 37.7206 18.673 41.9809 18.6667 47.2381V49.1429ZM32 32C26.7402 32 22.4762 27.7361 22.4762 22.4762C22.4762 17.2163 26.7402 12.9524 32 12.9524C37.2599 12.9524 41.5238 17.2163 41.5238 22.4762C41.5175 27.7334 37.2573 31.9937 32 32ZM32 16.7619C28.8441 16.7619 26.2857 19.3203 26.2857 22.4762C26.2857 25.6321 28.8441 28.1905 32 28.1905C35.1559 28.1905 37.7143 25.6321 37.7143 22.4762C37.7143 19.3203 35.1559 16.7619 32 16.7619Z" fill="#07B6E1"/>
</svg>
