<svg width="64" height="64" viewBox="0 0 64 64" fill="none" xmlns="http://www.w3.org/2000/svg">
<rect x="0.5" y="0.5" width="63" height="63" rx="3.5" fill="#07B6E1" fill-opacity="0.13" stroke="#07B6E1"/>
<path d="M37.7144 51.0476H26.2858V47.2381H37.7144V51.0476ZM37.7144 45.3333H26.2858L25.861 41.5238C25.6325 40.2637 25.2546 39.0354 24.7353 37.8648C24.061 36.9124 23.3582 36.0991 22.6782 35.3048C20.1793 32.9625 18.7328 29.7101 18.6667 26.2857C18.6667 18.9219 24.6363 12.9524 32.0001 12.9524C39.3639 12.9524 45.3334 18.9219 45.3334 26.2857C45.2559 29.6892 43.8204 32.9202 41.3468 35.2591L41.3144 35.2972C40.6363 36.0914 39.9353 36.9143 39.2744 37.8572C38.7555 39.0309 38.3764 40.2616 38.1448 41.5238L37.7144 45.3333ZM32.0001 16.7619C26.7428 16.7682 22.4826 21.0285 22.4763 26.2857C22.4763 29.2267 23.7029 30.6533 25.5582 32.8153C26.2629 33.6381 27.0629 34.5676 27.8439 35.6552C28.7916 37.4968 29.4392 39.478 29.762 41.5238H34.2401C34.5712 39.4839 35.2177 37.5079 36.1563 35.6667C36.9182 34.5791 37.7163 33.6438 38.4191 32.821L38.4477 32.7867C40.2991 30.6152 41.5239 29.181 41.5239 26.2857C41.5176 21.0285 37.2573 16.7682 32.0001 16.7619Z" fill="#07B6E1"/>
</svg>
