<svg width="64" height="64" viewBox="0 0 64 64" fill="none" xmlns="http://www.w3.org/2000/svg">
<rect x="0.5" y="0.5" width="63" height="63" rx="3.5" fill="#07B6E1" fill-opacity="0.13" stroke="#07B6E1"/>
<path d="M45.3334 49.2191H18.6667C16.5628 49.2191 14.8572 47.5136 14.8572 45.4096V18.7429C14.8572 16.639 16.5628 14.9334 18.6667 14.9334H22.4762V11.1239H26.2857V14.9334H37.7143V11.1239H41.5238V14.9334H45.3334C47.4373 14.9334 49.1429 16.639 49.1429 18.7429V45.4096C49.1429 47.5136 47.4373 49.2191 45.3334 49.2191ZM18.6667 26.362V45.4096H45.3334V26.362H18.6667ZM18.6667 18.7429V22.5525H45.3334V18.7429H18.6667ZM30.0953 42.3887L23.0343 35.3277L25.7277 32.6344L30.0953 37.002L38.2724 28.8249L40.9657 31.5182L30.0953 42.3868V42.3887Z" fill="#07B6E1"/>
</svg>
