<svg width="64" height="64" viewBox="0 0 64 64" fill="none" xmlns="http://www.w3.org/2000/svg">
<rect x="0.5" y="0.5" width="63" height="63" rx="3.5" fill="#07B6E1" fill-opacity="0.13" stroke="#07B6E1"/>
<path d="M44.9524 52.7238H17.2191C15.031 52.7238 13.2572 50.95 13.2572 48.7619V21.0285C13.2572 18.8404 15.031 17.0666 17.2191 17.0666H21.181V13.1047H25.1429V17.0666H37.0286V13.1047H40.9905V17.0666H44.9524C47.1405 17.0666 48.9143 18.8404 48.9143 21.0285V48.7619C48.9143 50.95 47.1405 52.7238 44.9524 52.7238ZM17.2191 28.9524V48.7619H44.9524V28.9524H17.2191ZM17.2191 21.0285V24.9905H44.9524V21.0285H17.2191ZM40.9905 44.8H37.0286V40.8381H40.9905V44.8ZM33.0667 44.8H29.1048V40.8381H33.0667V44.8ZM25.1429 44.8H21.181V40.8381H25.1429V44.8ZM40.9905 36.8762H37.0286V32.9143H40.9905V36.8762ZM33.0667 36.8762H29.1048V32.9143H33.0667V36.8762ZM25.1429 36.8762H21.181V32.9143H25.1429V36.8762Z" fill="#07B6E1"/>
</svg>
