<svg width="18" height="23" viewBox="0 0 18 23" fill="none" xmlns="http://www.w3.org/2000/svg">
<path d="M16.9146 4.95787L12.9698 0.915369C12.8458 0.789251 12.6778 0.718971 12.503 0.719981H1.98362C0.894286 0.719981 0.0112305 1.62491 0.0112305 2.74123V20.2587C0.0112305 21.375 0.894286 22.28 1.98362 22.28H15.1329C16.2222 22.28 17.1053 21.375 17.1053 20.2587V5.43623C17.1063 5.25714 17.0377 5.08504 16.9146 4.95787ZM15.7904 20.2587C15.7904 20.6309 15.496 20.9325 15.1329 20.9325H1.98362C1.6205 20.9325 1.32616 20.6309 1.32616 20.2587V2.74123C1.32616 2.36911 1.6205 2.06748 1.98362 2.06748H11.8456V4.76248C11.8456 5.50668 12.4343 6.10998 13.1605 6.10998H15.7904V20.2587Z" fill="#07B6E1"/>
<path d="M14.4753 16.89H13.1604V18.2375H14.4753V16.89Z" fill="#07B6E1"/>
<path d="M14.4755 10.1525H2.64111V11.5H14.4755V10.1525Z" fill="#07B6E1"/>
<path d="M14.4755 13.5212H2.64111V14.8687H14.4755V13.5212Z" fill="#07B6E1"/>
<path d="M11.8456 16.89H2.64111V18.2375H11.8456V16.89Z" fill="#07B6E1"/>
</svg>
