<svg width="16" height="16" viewBox="0 0 16 16" fill="none" xmlns="http://www.w3.org/2000/svg">
<path d="M11.7301 14.004H11.7114C9.15028 13.941 6.70625 12.9183 4.8634 11.1387C3.08308 9.2975 2.05986 6.85439 1.99666 4.29402C1.99288 3.93535 2.13371 3.59026 2.3874 3.33669L4.19673 1.52869C4.45707 1.26843 4.87907 1.26843 5.1394 1.52869L7.80607 4.19535C8.06632 4.45569 8.06632 4.87769 7.80607 5.13802L6.74207 6.20002C6.93941 6.9373 7.30291 7.61962 7.80473 8.19469C8.37876 8.69668 9.06021 9.06044 9.79673 9.25802L10.8634 8.19535C11.1237 7.9351 11.5457 7.9351 11.8061 8.19535L14.4727 10.862C14.733 11.1224 14.733 11.5444 14.4727 11.8047L12.6634 13.6134C12.4167 13.8626 12.0808 14.0032 11.7301 14.004ZM4.66673 2.94335H4.6634L3.33007 4.27935C3.38443 6.49179 4.26761 8.60315 5.80473 10.1954C7.39702 11.7319 9.50796 12.615 11.7201 12.67L13.0581 11.3334L11.3301 9.61002L10.4681 10.4714C10.3448 10.5961 10.1768 10.6664 10.0014 10.6667C9.95457 10.6667 9.90787 10.6618 9.86207 10.652C8.75115 10.4063 7.71966 9.88572 6.86207 9.13802C6.11437 8.28043 5.59381 7.24893 5.34807 6.13802C5.30171 5.9172 5.37019 5.68791 5.53007 5.52869L6.3914 4.66669L4.66673 2.94335Z" fill="#07B6E1"/>
</svg>
