<svg width="80" height="81" viewBox="0 0 80 81" fill="none" xmlns="http://www.w3.org/2000/svg">
<g style="mix-blend-mode:screen">
<rect width="79.5536" height="81" rx="12" fill="#07B6E1"/>
<g clip-path="url(#clip0_942_1398)">
<path d="M39.4152 12.2946C29.4262 12.2946 21.2996 20.4213 21.2996 30.4103C21.2996 40.3993 29.4262 48.526 39.4152 48.526C49.4042 48.526 57.5309 40.3993 57.5309 30.4103C57.5309 20.4213 49.4042 12.2946 39.4152 12.2946Z" fill="black"/>
<path d="M61.9546 60.3609C56.9949 55.325 50.42 52.5517 43.4409 52.5517H35.3895C28.4105 52.5517 21.8355 55.325 16.8758 60.3609C11.9404 65.3721 9.22241 71.9869 9.22241 78.9872C9.22241 80.0988 10.1236 81 11.2353 81H67.5951C68.7067 81 69.608 80.0988 69.608 78.9872C69.608 71.9869 66.8899 65.3721 61.9546 60.3609Z" fill="black"/>
</g>
</g>
<defs>
<clipPath id="clip0_942_1398">
<rect width="68.7054" height="68.7054" fill="white" transform="translate(5.0625 12.2946)"/>
</clipPath>
</defs>
</svg>
