<svg width="20" height="19" viewBox="0 0 20 19" fill="none" xmlns="http://www.w3.org/2000/svg">
<path d="M19.4751 18.031L14.7787 13.4137C16.0385 11.9898 16.8012 10.1319 16.8012 8.10133C16.8012 3.63149 13.1032 0 8.56113 0C4.01473 0 0.321045 3.6357 0.321045 8.10133C0.321045 12.567 4.01901 16.2027 8.56113 16.2027C10.6265 16.2027 12.5162 15.4528 13.9645 14.2142L18.6609 18.8315C18.7723 18.941 18.9223 19 19.068 19C19.2137 19 19.3636 18.9452 19.4751 18.8315C19.6979 18.6124 19.6979 18.2501 19.4751 18.031ZM1.47371 8.10133C1.47371 4.2592 4.65319 1.13747 8.55684 1.13747C12.4648 1.13747 15.64 4.26341 15.64 8.10133C15.64 11.9392 12.4648 15.0694 8.55684 15.0694C4.65319 15.0694 1.47371 11.9435 1.47371 8.10133Z" fill="#07B6E1"/>
</svg>
