<svg width="64" height="64" viewBox="0 0 64 64" fill="none" xmlns="http://www.w3.org/2000/svg">
<rect x="0.5" y="0.5" width="63" height="63" rx="3.5" fill="#07B6E1" fill-opacity="0.13" stroke="#07B6E1"/>
<path d="M37.4856 13.3069C37.4856 9.94248 34.9863 7.20532 31.9142 7.20532C28.8421 7.20532 26.3428 9.94248 26.3428 13.3069C26.3428 16.6713 28.8421 19.4084 31.9142 19.4084C34.9863 19.4084 37.4856 16.6713 37.4856 13.3069ZM31.9142 17.3746C29.8661 17.3746 28.1999 15.5498 28.1999 13.3069C28.1999 11.064 29.8661 9.23918 31.9142 9.23918C33.9623 9.23918 35.6285 11.064 35.6285 13.3069C35.6285 15.5498 33.9623 17.3746 31.9142 17.3746Z" fill="#07B6E1"/>
<path d="M40.2714 32.6294V28.5614C40.2714 23.5145 36.5224 19.4084 31.9143 19.4084C27.3061 19.4084 23.5571 23.5145 23.5571 28.5614V32.6294C23.5571 33.1911 23.9729 33.6464 24.4857 33.6464H39.3428C39.8556 33.6464 40.2714 33.1911 40.2714 32.6294ZM38.4143 31.6124H25.4143V28.5614C25.4143 24.636 28.3302 21.4424 31.9143 21.4424C35.4984 21.4424 38.4143 24.636 38.4143 28.5614V31.6124Z" fill="#07B6E1"/>
<path d="M14.8154 47.0816L19.2857 49.5291V55.0022C19.2857 55.5639 19.7015 56.0192 20.2143 56.0192H30.0571C30.5699 56.0192 30.9857 55.5639 30.9857 55.0022V42.0646C30.9857 38.8324 28.808 36.0439 26.0279 35.7164C25.9541 35.7012 22.4391 35.4143 20.7399 33.5546L18.1975 30.7703C17.4959 30.0017 16.5632 29.5784 15.5714 29.5784V21.4428C15.5714 19.1998 13.9052 17.375 11.8571 17.375C9.80905 17.375 8.14282 19.1998 8.14282 21.4428V35.2571C8.14282 40.2617 10.7241 44.8408 14.8154 47.0816ZM9.99997 21.4428C9.99997 20.3213 10.8331 19.4089 11.8571 19.4089C12.8811 19.4089 13.7143 20.3213 13.7143 21.4428V30.1236C12.5818 30.8408 11.8571 32.1779 11.8571 33.6462C11.8571 34.7323 12.2436 35.7537 12.9453 36.5222L17.7005 41.731C18.0629 42.1281 18.651 42.1283 19.0137 41.7311C19.3763 41.334 19.3764 40.6902 19.0138 40.2929L14.2586 35.084C13.9076 34.6997 13.7143 34.1891 13.7143 33.6462C13.7143 32.7855 14.2117 32.0146 14.9522 31.7282C14.9525 31.7281 14.9528 31.7279 14.9531 31.7278H14.9532C15.592 31.4797 16.3521 31.6256 16.8843 32.2084L19.427 34.9931C21.1588 36.8884 23.6827 37.4215 25.8189 37.7374C25.8224 37.7378 25.8259 37.7384 25.8294 37.7388C27.6794 37.9566 29.1285 39.8568 29.1285 42.0646V53.9853H21.1428V48.9005C21.1428 48.5153 20.944 48.1631 20.6295 47.991L15.646 45.2625C12.1634 43.355 9.99997 39.5212 9.99997 35.2571V21.4428Z" fill="#07B6E1"/>
<path d="M50.7643 45.6454C51.2771 45.6454 51.6928 45.1903 51.6928 44.629C51.6928 44.0676 51.2771 43.6125 50.7643 43.6125C50.2514 43.6125 49.8357 44.0676 49.8357 44.629C49.8357 45.1903 50.2514 45.6454 50.7643 45.6454Z" fill="#07B6E1"/>
<path d="M51.9713 17.375C49.9233 17.375 48.2571 19.1998 48.2571 21.4428V29.5784C47.2653 29.5784 46.3326 30.0017 45.631 30.7702L43.0888 33.5543C41.6068 35.1762 39.2029 35.4467 37.8005 35.7166C35.0205 36.044 32.8428 38.8324 32.8428 42.0646V55.0022C32.8428 55.5639 33.2586 56.0192 33.7713 56.0192H43.6142C44.127 56.0192 44.5428 55.5639 44.5428 55.0022V49.5291L47.582 47.8652C48.0406 47.614 48.2266 47.0032 47.9973 46.5007C47.7681 45.9985 47.2105 45.7948 46.7516 46.0458L43.1989 47.9908C42.8844 48.1631 42.6856 48.5153 42.6856 48.9005V53.9853H34.6999V42.0646C34.6999 39.8568 36.149 37.9566 37.999 37.7387C38.0026 37.7383 38.0061 37.7378 38.0095 37.7373C40.1788 37.4165 42.6715 36.8864 44.4017 34.9928L46.9442 32.2084C47.4757 31.6263 48.2361 31.4796 48.8753 31.7278H48.8754C48.8757 31.7279 48.876 31.7281 48.8762 31.7282C49.6168 32.0146 50.1142 32.7855 50.1142 33.6462C50.1142 34.1891 49.9209 34.6997 49.57 35.0842L44.8148 40.293C44.4521 40.6903 44.4522 41.3341 44.8148 41.7312C45.1774 42.1282 45.7654 42.1283 46.128 41.7311L50.8832 36.5223C51.5849 35.7537 51.9713 34.7323 51.9713 33.6462C51.9713 32.1779 51.2467 30.8408 50.1142 30.1236V21.4428C50.1142 20.3213 50.9473 19.4089 51.9713 19.4089C52.9954 19.4089 53.8285 20.3213 53.8285 21.4428V35.2571C53.8285 37.1177 53.3998 38.9649 52.5886 40.5989C52.3435 41.0924 52.5102 41.7099 52.9608 41.9781C53.4113 42.2463 53.9752 42.0639 54.2202 41.5704C55.1789 39.6392 55.6856 37.456 55.6856 35.2571V21.4428C55.6856 19.1998 54.0194 17.375 51.9713 17.375Z" fill="#07B6E1"/>
</svg>
