<svg width="64" height="64" viewBox="0 0 64 64" fill="none" xmlns="http://www.w3.org/2000/svg">
<rect x="0.5" y="0.5" width="63" height="63" rx="3.5" fill="#07B6E1" fill-opacity="0.13" stroke="#07B6E1"/>
<path d="M12.8 43.9113H10.0571C10.0571 39.2176 13.7412 35.4126 18.2857 35.4126C22.8302 35.4126 26.5143 39.2176 26.5143 43.9113H23.7714C23.7714 40.7822 21.3154 38.2455 18.2857 38.2455C15.256 38.2455 12.8 40.7822 12.8 43.9113ZM32.4992 38.7597L30.56 36.7568C32.3605 34.8973 33.3721 32.3752 33.3721 29.7454C33.3721 27.1155 32.3605 24.5934 30.56 22.7339L32.4992 20.7311C37.3185 25.7094 37.3185 33.78 32.4992 38.7582V38.7597ZM28.6194 34.7539L26.6802 32.7482C28.2845 31.0892 28.2845 28.4015 26.6802 26.7425L28.6194 24.7354C31.2972 27.5012 31.2972 31.9853 28.6194 34.7511V34.7539ZM18.2857 33.9947C15.256 33.9947 12.8 31.4581 12.8 28.3289C12.8 25.1998 15.256 22.6631 18.2857 22.6631C21.3154 22.6631 23.7714 25.1998 23.7714 28.3289C23.7714 29.8316 23.1935 31.2727 22.1647 32.3352C21.1359 33.3978 19.7406 33.9947 18.2857 33.9947ZM18.2857 25.496C16.7873 25.4976 15.5674 26.7409 15.5459 28.2883C15.5244 29.8358 16.7093 31.1147 18.2071 31.1606C19.7049 31.2065 20.9611 30.0025 21.0286 28.4564V29.023V28.3289C21.0286 26.7644 19.8005 25.496 18.2857 25.496Z" fill="#07B6E1"/>
<path d="M38.6611 44.1932H36.4668V43.0601C36.4716 38.6814 39.9073 35.133 44.1468 35.128H48.5354C52.7749 35.133 56.2105 38.6814 56.2154 43.0601V44.1932H54.0211V43.0601C54.0175 39.9325 51.5635 37.398 48.5354 37.3943H44.1468C41.1186 37.398 38.6647 39.9325 38.6611 43.0601V44.1932ZM46.3411 33.9948C43.3114 33.9948 40.8554 31.4581 40.8554 28.329C40.8554 25.1999 43.3114 22.6632 46.3411 22.6632C49.3708 22.6632 51.8268 25.1999 51.8268 28.329C51.8232 31.4566 49.3693 33.9911 46.3411 33.9948ZM46.3411 24.9295C44.5233 24.9295 43.0497 26.4515 43.0497 28.329C43.0497 30.2065 44.5233 31.7285 46.3411 31.7285C48.1589 31.7285 49.6325 30.2065 49.6325 28.329C49.6325 26.4515 48.1589 24.9295 46.3411 24.9295Z" fill="#07B6E1"/>
</svg>
